<svg class="icon" viewBox="0 0 1024 1024" xmlns="http://www.w3.org/2000/svg" width="48" height="48"><path d="M868.892 547.871C786.568 440.358 518.656 144.8 269.43 330.336a4.761 4.761 0 0 1-.921.615c-4.608 3.123-59.44 42.544-92.154 171.048-1.434 5.58-3.123 10.854-5.12 16.844L94.03 793.615c-27.44 95.533 52.835 189.428 169.359 197.67h2.56a268.373 268.373 0 0 0 36.298 0c97.837-6.758 561.27-54.012 596.237-340.304a140.381 140.381 0 0 0-29.592-103.417z" fill="#5093FF"/><path d="M859.677 449.625C778.786 335.763 543.537 27.303 298.51 224.359c0 0-59.388 45.821-91.386 182.312-1.382 5.938-3.02 11.519-5.12 17.919L97.921 710.932C71.043 812.251 149.835 911.828 264.413 920.84h2.509a244.157 244.157 0 0 0 35.837 0c96.148-7.168 551.798-57.392 586.202-361.449a158.095 158.095 0 0 0-29.13-109.868z" fill="#E1F1FF"/><path d="M902.016 433.805c-91.335-141.917-388.531-533.47-664.993-287.828a8.96 8.96 0 0 1-1.024.82c-5.12 4.146-65.993 56.316-102.086 226.391-1.587 7.424-3.43 14.386-5.58 22.373L42.423 759.467a212.517 212.517 0 0 0 187.994 261.512l2.867.308a251.427 251.427 0 0 0 40.241 0c108.486-8.96 622.603-71.676 661.41-450.531a212.261 212.261 0 0 0-32.817-136.951zm-25.598 137.207C843.396 893.142 384.93 957.7 292.776 965.226a200.179 200.179 0 0 1-34.148 0h-2.407c-109.97-9.42-178.317-91.898-152.617-199.257l78.638-348.137c1.741-6.707 3.43-12.646 4.71-18.943 30.718-144.63 82.478-188.967 86.728-192.397.307-.307.614-.41.87-.717C509.338-2.954 762.044 329.978 839.659 450.597c22.168 34.405 40.65 79.611 36.554 120.415zm0 0" fill="#2765C1"/><path d="M771.465 215.349C773 217.909 638.917 7.593 456.145.016a19.967 19.967 0 0 0-19.609 26.622 247.536 247.536 0 0 0 69.116 103.11 19.916 19.916 0 0 1-9.011 34.404c-37.988 8.55-92.461 22.322-125.022 36.862a19.916 19.916 0 0 0-.87 35.837c36.554 18.38 107.103 46.948 191.014 45.36a19.967 19.967 0 0 1 15.36 32.869c-35.839 42.8-89.185 112.94-94.459 158.3a20.018 20.018 0 0 0 27.749 20.479c37.527-16.332 116.472-54.32 160.86-102.394a19.916 19.916 0 0 1 34.404 11.52c5.939 56.316 17.458 138.947 37.834 184.307a19.916 19.916 0 0 0 35.838.615c15.359-30.718 37.22-81.915 42.34-131.422a19.967 19.967 0 0 1 33.277-12.8c27.595 25.19 66.863 59.03 97.274 77.922a19.967 19.967 0 0 0 30.718-17.355C981.934 441.28 957.36 327.93 768.495 213.3" fill="#2765C1"/><path d="M732.555 209.973A264.79 264.79 0 0 1 959.817 18.6a19.864 19.864 0 0 1 18.073 31.588 8.857 8.857 0 0 1-8.14 7.373 225.572 225.572 0 0 0-197.671 158.71zM281.308 484.643c4.147 3.328 12.492.768 21.81-6.758a89.39 89.39 0 0 0 23.397-29.54c5.12-10.803 5.734-19.455 1.535-22.783s-12.492-.717-21.81 6.758a90.004 90.004 0 0 0-23.396 29.54c-5.12 10.803-5.734 19.507-1.536 22.783zm0 143.658c4.147 3.277 12.492.717 21.81-6.758a88.724 88.724 0 0 0 23.397-29.54c5.12-10.803 5.734-19.506 1.535-22.834s-12.492-.717-21.81 6.758a90.72 90.72 0 0 0-23.396 29.592c-5.12 10.75-5.734 19.454-1.536 22.782zm55.446 119.237c4.198 3.328 12.492.768 21.86-6.758a89.236 89.236 0 0 0 23.346-29.08c5.12-10.802 5.786-19.506 1.588-22.782s-12.544-.768-21.861 6.758a90.004 90.004 0 0 0-23.397 29.54c-5.12 10.803-5.734 19.455-1.536 22.783zM198.83 807.489c4.147 3.277 12.492.717 21.81-6.758a90.004 90.004 0 0 0 23.397-29.54c5.12-10.803 5.734-19.506 1.536-22.834s-12.492-.717-21.81 6.758a90.413 90.413 0 0 0-23.397 29.54c-5.12 10.803-5.734 19.507-1.536 22.834zm366.875-98.144c4.198 3.328 12.492.768 21.861-6.758a90.004 90.004 0 0 0 23.397-29.54c5.12-10.803 5.734-19.506 1.536-22.783s-12.492-.768-21.86 6.758a89.236 89.236 0 0 0-23.347 29.54c-5.12 10.803-5.734 19.507-1.587 22.783zm-184.87 167.823c4.197 3.328 12.491.717 21.86-6.758a90.004 90.004 0 0 0 23.397-29.54c5.12-10.803 5.734-19.506 1.536-22.834s-12.492-.717-21.861 6.758a89.901 89.901 0 0 0-23.346 29.591c-5.12 10.752-5.785 19.455-1.587 22.783zm82.477-217.586c4.198 3.328 12.492.717 21.861-6.758a90.004 90.004 0 0 0 23.397-29.54c5.12-10.803 5.734-19.506 1.536-22.783s-12.492-.768-21.861 6.707a89.901 89.901 0 0 0-23.346 29.592c-5.12 10.751-5.734 19.454-1.587 22.782zm0 0" fill="#2765C1"/></svg>